<svg version="1.1" xmlns="http://www.w3.org/2000/svg" viewBox="0 0 834.6474590632722 583.869140625" width="1669.2949181265444" height="1167.73828125">
  <!-- svg-source:excalidraw -->
  
  <defs>
    <style>
      @font-face {
        font-family: "Virgil";
        src: url("https://excalidraw.com/Virgil.woff2");
      }
      @font-face {
        font-family: "Cascadia";
        src: url("https://excalidraw.com/Cascadia.woff2");
      }
    </style>
  </defs>
  <rect x="0" y="0" width="834.6474590632722" height="583.869140625" fill="#ffffff"></rect><g transform="translate(41.83856201171875 71.12869262695307) rotate(0 65.5 12.5)"><text x="0" y="18" font-family="Virgil, Segoe UI Emoji" font-size="20px" fill="#000000" text-anchor="start" style="white-space: pre;" direction="ltr">Raise Invoice</text></g><g stroke-linecap="round" transform="translate(10 51.66586303710932) rotate(0 97.04840087890625 32.17628479003906)"><path d="M0.57 -0.33 C60.72 0.01, 123.12 1.48, 194.98 1.09 M-0.14 -0.24 C70.56 0.02, 141.68 1.63, 193.43 -0.19 M194.63 -1.43 C194.08 21.91, 194.19 39.88, 192.95 65.29 M195 -0.01 C192.88 17.77, 193.3 36.83, 193.18 64.43 M193.63 64.25 C137.61 63.13, 81.12 63.29, 0.48 63.51 M193.63 64.74 C143.51 62.66, 92.8 62.44, -0.24 64.78 M1.48 65 C2.24 40.65, 2.02 20.99, 1.34 1.2 M-0.02 65.23 C0.1 50.23, 1.13 36.93, -0.15 0.16" stroke="#000000" stroke-width="1" fill="none"></path></g><g stroke-linecap="round" transform="translate(553.9178161621094 10) rotate(0 112.52737426757812 101.90563964843747)"><path d="M-0.61 1.01 C70.03 0.69, 141.95 0.62, 224.16 -1.04 M-0.21 0.65 C58.12 1.23, 116.75 0.49, 225.85 0.81 M226.81 0.78 C225.56 62.54, 224.27 124.13, 225.65 204.38 M224.33 0.85 C224.87 45.08, 225.09 92.49, 224.78 204.64 M226.52 203.87 C168.36 201.61, 110.18 201.31, 1.24 203.87 M225.33 203.76 C172.43 202.14, 121.86 202.69, -0.23 203.13 M-1.21 202.04 C2.14 136.29, 0.16 70.59, -1.27 0.43 M0.07 203.97 C-1.06 139.21, -0.73 74.03, -0.41 0.21" stroke="#000000" stroke-width="1" fill="none"></path></g><g stroke-linecap="round" transform="translate(196.17154263576424 104.69731096748882) rotate(0 29.09863682598848 44.15556445613328)"><path d="M0.79 1.1 L58.94 -0.98 L59.56 86.32 L-1.53 88.89" stroke="none" stroke-width="0" fill="#fff"></path><path d="M-0.14 1.94 C17.39 0.95, 34.36 -0.03, 57.54 -0.29 M-0.97 0.99 C15.38 0.17, 32.19 0.13, 59.05 0.26 M58.44 -0.13 C57.11 21.09, 57.95 39.54, 58.16 90.12 M57.65 0.16 C56.43 26.47, 57.3 52.85, 58.04 88.08 M60.07 87.55 C41.52 87.2, 23.1 89.72, -1.4 87.38 M58.37 87.76 C38.22 88.54, 19.13 87.64, 0.56 89.05 M1.72 88.72 C0.49 60.16, -2.64 28.57, -1.73 -0.04 M0.79 87.97 C0.05 54.23, 0.5 19.83, 0.68 0.59" stroke="#000000" stroke-width="2" fill="none"></path></g><g stroke-linecap="round" transform="translate(189.95692964476018 98.9169167769665) rotate(0 29.09863682598848 44.15556445613328)"><path d="M1.1 0.74 L57.22 1.36 L56.21 86.78 L0.57 87.14" stroke="none" stroke-width="0" fill="#fff"></path><path d="M1.94 0.88 C15.9 1.39, 29.72 -0.62, 57.91 -0.49 M0.99 -0.66 C12.82 0.67, 25.78 1.42, 58.46 -0.72 M58.07 -1.15 C59.97 26.76, 58.26 54.09, 60.01 88.29 M58.36 -0.91 C57.78 17.89, 57.76 35.71, 57.96 88.26 M57.44 88.79 C37.15 88.08, 19.48 87.46, -0.93 89.09 M57.64 88.07 C40.29 88.81, 21.07 88.97, 0.74 88.64 M0.41 89.66 C2 51.51, -0.23 16.55, -0.04 1.76 M-0.34 88.16 C0.68 64.11, 0.52 40, 0.59 0.4" stroke="#000000" stroke-width="2" fill="none"></path></g><g stroke-linecap="round" transform="translate(182.2209426342945 92.12058844055701) rotate(0 29.09863682598848 44.15556445613328)"><path d="M0.74 -0.98 L59.56 -1.99 L56.67 88.89 L-1.17 86.65" stroke="none" stroke-width="0" fill="#fff"></path><path d="M0.88 1.09 C20.16 -0.46, 36.96 -0.85, 57.71 -1.53 M-0.66 -0.19 C13.99 -0.81, 28.62 -0.31, 57.48 0.06 M57.05 0.93 C58 34.12, 58.27 71.62, 58.17 86.37 M57.29 0.08 C57.67 21.6, 57.56 42.84, 58.15 88.78 M58.68 87.46 C42.65 89.77, 27.24 87.16, 0.78 88.61 M57.96 88.73 C43.08 87.51, 27.72 88.73, 0.32 89.28 M1.34 89.52 C-2.55 68.78, -2.49 51.27, 1.76 -0.45 M-0.15 88.47 C-0.41 66.96, -0.03 46.21, 0.4 0.55" stroke="#000000" stroke-width="2" fill="none"></path></g><g stroke-linecap="round"><g transform="translate(192.7733705117265 132.9851723139729) rotate(0 18.733474887023135 -1.0125594375648177)"><path d="M0.53 0.11 C6.23 -0.06, 27.86 0.21, 34.1 -0.35 C40.33 -0.92, 37.3 -2.65, 37.96 -3.26 M-0.65 -0.6 C4.96 -0.04, 27.3 1.46, 33.57 1.22 C39.85 0.98, 36.22 -1.27, 36.99 -2.04" stroke="#000000" stroke-width="1" fill="none"></path></g></g><g stroke-linecap="round"><g transform="translate(194.1056040738349 107.26235656200635) rotate(0 18.441811651955675 -1.443373865439412)"><path d="M0.65 0.31 C2.78 -0.22, 7.81 -2.97, 13.92 -3.2 C20.04 -3.43, 33.57 -1.34, 37.35 -1.06 M-0.47 -0.31 C1.41 -0.72, 6.85 -1.94, 13.01 -1.87 C19.17 -1.8, 32.6 -0.07, 36.49 0.11" stroke="#000000" stroke-width="1" fill="none"></path></g></g><g stroke-linecap="round"><g transform="translate(193.79024049782845 163.40362541841614) rotate(0 19.419611035610956 -0.7338920945433358)"><path d="M0.81 -0.28 C4.28 -0.46, 16.37 -0.88, 21.35 -0.73 C26.33 -0.57, 27.73 1.04, 30.68 0.64 C33.64 0.24, 37.35 -2.56, 39.06 -3.12 M-0.22 -1.3 C3.01 -1.34, 15.2 0.26, 20.2 0.72 C25.2 1.18, 26.64 2.03, 29.76 1.48 C32.89 0.92, 37.19 -1.92, 38.92 -2.63" stroke="#000000" stroke-width="1" fill="none"></path></g></g><g stroke-linecap="round"><g transform="translate(192.36123061981027 171.74018081648182) rotate(0 22.206220829079598 -0.6167568034393298)"><path d="M0.06 -0.8 C1.32 -1.14, 6.15 -1.49, 8.2 -1.66 C10.25 -1.83, 7.57 -2.33, 12.36 -1.84 C17.15 -1.35, 31.66 1.4, 36.93 1.29 C42.21 1.17, 42.67 -1.88, 44 -2.52 M-1.36 -2.05 C-0.34 -2.29, 4.47 -0.47, 7.16 -0.28 C9.85 -0.08, 9.87 -0.84, 14.78 -0.91 C19.68 -0.97, 31.41 -0.42, 36.57 -0.65 C41.74 -0.87, 44.14 -1.73, 45.78 -2.25" stroke="#000000" stroke-width="1" fill="none"></path></g></g><g stroke-linecap="round"><g transform="translate(191.58136131175695 119.81535692194348) rotate(0 20.008417638789297 -0.25577572759391387)"><path d="M-0.39 -0.28 C1.92 -0.52, 8.31 -1.6, 14.69 -1.51 C21.07 -1.42, 33.71 -0.07, 37.9 0.29 M1.6 -1.41 C3.66 -1.54, 7.12 -0.86, 13.59 -0.45 C20.06 -0.05, 36.5 0.7, 40.41 1" stroke="#000000" stroke-width="1" fill="none"></path></g></g><g stroke-linecap="round"><g transform="translate(193.05830302084223 148.3253623515253) rotate(0 18.06292703158914 0.30759237868832656)"><path d="M-0.17 -0.4 C0.78 -0.26, 3.41 0.17, 5.75 0.33 C8.08 0.5, 8.47 0.45, 13.82 0.6 C19.17 0.74, 33.69 1.13, 37.85 1.22 M-1.72 -1.6 C-0.41 -1.28, 5 1.41, 7.98 1.48 C10.95 1.56, 11.16 -1.24, 16.11 -1.12 C21.06 -1, 34.13 1.79, 37.68 2.21" stroke="#000000" stroke-width="1" fill="none"></path></g></g><g stroke-linecap="round"><g transform="translate(285.5876837420526 107.11166381835932) rotate(0 113.0071617702364 1.076264315107835)"><path d="M-0.68 0.18 C37.12 0.86, 188.79 2.71, 226.69 2.92 M1.17 -0.77 C38.85 -0.37, 188.44 0.49, 225.93 0.98" stroke="#000000" stroke-width="1" fill="none"></path></g><g transform="translate(285.5876837420526 107.11166381835932) rotate(0 113.0071617702364 1.076264315107835)"><path d="M197.95 11.59 C206.59 8.85, 212.41 5.37, 225.67 1.88 M197.94 10.52 C208.74 7.67, 218.41 3.01, 224.99 0.35" stroke="#000000" stroke-width="1" fill="none"></path></g><g transform="translate(285.5876837420526 107.11166381835932) rotate(0 113.0071617702364 1.076264315107835)"><path d="M198.14 -8.93 C206.53 -5.68, 212.29 -3.17, 225.67 1.88 M198.12 -10 C208.77 -5.32, 218.37 -2.45, 224.99 0.35" stroke="#000000" stroke-width="1" fill="none"></path></g></g><g transform="translate(282.61767578125 58.96655273437494) rotate(0 111 12.5)"><text x="0" y="18" font-family="Virgil, Segoe UI Emoji" font-size="20px" fill="#000000" text-anchor="start" style="white-space: pre;" direction="ltr">Create Paylink Tokens</text></g><g stroke-linecap="round"><g transform="translate(734.845833424429 57.30090946916425) rotate(0 43.96964595942234 48.13004433509994)" fill-rule="evenodd"><path d="M1.71 -0.37 L-1.45 94.32 L2.32 97.63 L18.63 101.88 L45.37 103.44 L72.81 104.52 L82.56 100.23 L88.23 96.64 L88.97 -2.6 L87.98 -2.31 L85.7 -1.95 L75.89 -5.57 L40.99 -7.51 L10.83 -5.21 L4.01 -4.64 L0.15 -1.46" stroke="none" stroke-width="0" fill="#228be6" fill-rule="evenodd"></path><path d="M-0.47 0.06 C-0.36 14.26, 0.82 69.64, 0.79 85.61 C0.77 101.58, -1.22 93.55, -0.61 95.87 C-0.01 98.19, 0.81 98.09, 4.45 99.52 C8.08 100.96, 14.23 103.62, 21.21 104.5 C28.2 105.39, 37.85 105.3, 46.34 104.86 C54.83 104.42, 65.53 102.92, 72.16 101.87 C78.79 100.82, 83.6 99.64, 86.12 98.55 C88.65 97.45, 86.95 97.37, 87.31 95.31 C87.66 93.24, 88 100.82, 88.25 86.15 C88.49 71.47, 88.96 21.58, 88.78 7.27 C88.6 -7.04, 88.19 2.08, 87.16 0.3 C86.13 -1.47, 85.34 -2.29, 82.6 -3.38 C79.85 -4.48, 77.25 -5.39, 70.69 -6.29 C64.12 -7.19, 51.38 -8.57, 43.2 -8.78 C35.03 -9, 28.27 -8.27, 21.64 -7.59 C15 -6.9, 6.91 -5.92, 3.39 -4.68 C-0.14 -3.45, 1.1 -1, 0.5 -0.18 C-0.1 0.63, 0 0.05, -0.23 0.23 M1.48 -0.96 C1.47 13.38, 0.64 70.55, 0.11 86.91 C-0.42 103.27, -2.47 94.96, -1.71 97.2 C-0.96 99.44, 0.99 98.98, 4.64 100.34 C8.3 101.69, 13.08 104.75, 20.21 105.34 C27.34 105.92, 38.68 104.15, 47.42 103.86 C56.15 103.56, 66.36 104.55, 72.65 103.59 C78.94 102.63, 82.44 99.7, 85.16 98.1 C87.89 96.51, 88.34 95.56, 88.99 94.01 C89.63 92.45, 88.96 103.05, 89.05 88.77 C89.15 74.48, 89.5 23.04, 89.53 8.28 C89.56 -6.48, 90.28 2.2, 89.23 0.22 C88.18 -1.76, 86.37 -2.53, 83.23 -3.59 C80.09 -4.64, 76.97 -5.16, 70.4 -6.1 C63.83 -7.03, 52.29 -9.17, 43.79 -9.18 C35.29 -9.2, 25.76 -6.98, 19.39 -6.2 C13.03 -5.41, 8.9 -5.51, 5.59 -4.46 C2.27 -3.41, 0.72 -0.73, -0.5 0.11 C-1.72 0.96, -1.68 0.7, -1.73 0.6" stroke="#0a11d3" stroke-width="1" fill="none"></path></g></g><g stroke-linecap="round"><g transform="translate(735.5331950139264 122.59103749995182) rotate(0 43.37018212296209 4.2025073390757655)"><path d="M0.06 0.5 C0.31 1.13, -0.17 2.18, 1.88 3.28 C3.94 4.37, 8.5 5.95, 12.38 7.09 C16.26 8.22, 19.31 9.79, 25.15 10.06 C31 10.33, 39.81 9.09, 47.47 8.71 C55.13 8.33, 64.99 8.64, 71.11 7.79 C77.23 6.94, 81.32 5.09, 84.16 3.62 C86.99 2.14, 87.4 -0.38, 88.11 -1.04 M-1.37 -0.28 C-1.35 0.54, -1.47 3.05, 0.7 4.48 C2.87 5.92, 7.56 7.77, 11.63 8.35 C15.69 8.93, 19.31 7.91, 25.11 7.98 C30.91 8.04, 38.53 8.99, 46.44 8.76 C54.35 8.53, 66.27 7.66, 72.56 6.59 C78.86 5.52, 81.8 3.72, 84.21 2.34 C86.61 0.96, 86.54 -1.02, 86.99 -1.69" stroke="#0a11d3" stroke-width="1" fill="none"></path></g></g><g stroke-linecap="round"><g transform="translate(734.439453501865 89.51688293788004) rotate(0 44.6736697771787 4.228632340209899)"><path d="M0.5 -0.45 C0.87 0.2, -0.26 2.75, 1.7 3.93 C3.66 5.1, 8.11 5.61, 12.26 6.62 C16.41 7.64, 20.99 9.54, 26.61 10.01 C32.23 10.47, 38.63 9.93, 45.99 9.42 C53.34 8.91, 64.17 7.97, 70.74 6.95 C77.31 5.93, 82.59 4.5, 85.42 3.29 C88.25 2.09, 87.22 0.52, 87.72 -0.29 M-0.69 -1.72 C0.11 -0.88, 2.06 3.91, 4.08 5.47 C6.1 7.04, 7.57 7.25, 11.45 7.65 C15.32 8.05, 21.26 7.52, 27.32 7.89 C33.39 8.26, 40.39 9.67, 47.84 9.85 C55.28 10.03, 65.61 10.31, 72 8.98 C78.38 7.64, 83.12 3.44, 86.13 1.85 C89.14 0.26, 89.93 -0.26, 90.04 -0.55" stroke="#0a11d3" stroke-width="1" fill="none"></path></g></g><g stroke-linecap="round" transform="translate(733.3186308157033 49.27621324206757) rotate(0 43.825373054270926 8.863351988406833)"><path d="M51.91 0.97 C60.83 1.26, 72.08 2.45, 78.06 3.73 C84.03 5.02, 87.99 6.94, 87.75 8.66 C87.5 10.38, 82.77 12.58, 76.58 14.04 C70.39 15.5, 59.95 16.97, 50.61 17.4 C41.27 17.83, 28.7 17.63, 20.54 16.62 C12.37 15.62, 4.39 13.36, 1.62 11.37 C-1.16 9.37, 0.19 6.44, 3.87 4.67 C7.55 2.9, 14.87 1.58, 23.69 0.76 C32.51 -0.06, 50.75 -0.11, 56.8 -0.25 C62.85 -0.39, 60.13 -0.5, 60 -0.08 M45.98 0.56 C55.3 0.64, 68.36 2.47, 75.14 3.84 C81.92 5.21, 85.74 7.37, 86.68 8.79 C87.62 10.21, 85.75 11.19, 80.78 12.37 C75.81 13.55, 66.11 14.91, 56.89 15.89 C47.67 16.88, 34.03 18.7, 25.47 18.28 C16.9 17.85, 9.54 15.44, 5.48 13.35 C1.42 11.25, -0.94 7.87, 1.11 5.71 C3.15 3.54, 10.01 1.42, 17.75 0.34 C25.49 -0.73, 42.97 -0.78, 47.54 -0.73 C52.12 -0.68, 45.27 0.42, 45.2 0.66" stroke="none" stroke-width="0" fill="#fff"></path><path d="M44.95 0.7 C53.8 0.69, 64.77 1.23, 71.75 2.19 C78.72 3.14, 85.14 4.62, 86.8 6.46 C88.46 8.29, 86.5 11.38, 81.7 13.2 C76.89 15.01, 66.83 16.84, 57.97 17.35 C49.11 17.86, 37.15 16.91, 28.55 16.24 C19.95 15.56, 11.05 14.68, 6.37 13.27 C1.69 11.86, -1.24 9.5, 0.46 7.79 C2.16 6.08, 8.64 4.21, 16.59 3.01 C24.54 1.82, 42.42 1.05, 48.17 0.64 C53.91 0.23, 51.13 0.45, 51.06 0.53 M36.6 -0.17 C45.57 -0.86, 58.22 -1.03, 66.5 0.2 C74.78 1.43, 83.26 5.41, 86.27 7.22 C89.27 9.04, 88.2 9.4, 84.54 11.09 C80.88 12.79, 72.54 16.51, 64.31 17.38 C56.08 18.25, 44.42 16.99, 35.13 16.3 C25.84 15.62, 14.58 14.48, 8.56 13.27 C2.54 12.05, -1.54 10.48, -1.01 9.02 C-0.47 7.55, 5.55 5.9, 11.75 4.47 C17.95 3.05, 32.07 1.04, 36.2 0.46 C40.32 -0.13, 36.46 0.82, 36.51 0.97" stroke="#0a11d3" stroke-width="1" fill="none"></path></g><g stroke-linecap="round" transform="translate(804.828363116284 73.8520161192011) rotate(0 6.423028523489847 6.970952181208048)"><path d="M5.13 0.17 C6.38 -0.2, 8.03 0, 9.1 0.59 C10.17 1.17, 11.09 2.31, 11.57 3.69 C12.06 5.06, 12.22 7.42, 11.99 8.84 C11.77 10.26, 11.13 11.44, 10.22 12.19 C9.3 12.95, 7.9 13.23, 6.52 13.36 C5.13 13.49, 3.15 13.75, 1.92 12.96 C0.7 12.17, -0.61 10.24, -0.83 8.63 C-1.04 7.01, -0.32 4.79, 0.63 3.27 C1.59 1.75, 4.04 -0.03, 4.91 -0.48 C5.78 -0.93, 5.58 0.35, 5.87 0.58 M4.58 1.66 C5.84 1.02, 8.46 -0.68, 9.84 -0.34 C11.21 0, 12.55 2.21, 12.81 3.69 C13.07 5.18, 11.99 7.3, 11.4 8.56 C10.8 9.82, 9.82 10.22, 9.24 11.27 C8.66 12.31, 8.95 14.62, 7.91 14.8 C6.87 14.99, 4.45 13.42, 2.98 12.35 C1.5 11.28, -0.35 9.67, -0.95 8.41 C-1.56 7.14, -1.34 6.26, -0.63 4.74 C0.07 3.22, 2.42 -0.2, 3.29 -0.73 C4.15 -1.25, 4.42 1.23, 4.56 1.59" stroke="none" stroke-width="0" fill="#fff"></path><path d="M6.86 -0.53 C8.25 -0.84, 9.6 0.19, 10.41 1.21 C11.23 2.23, 11.5 4.17, 11.76 5.59 C12.01 7.01, 12.41 8.4, 11.95 9.72 C11.49 11.03, 10.39 12.72, 8.99 13.48 C7.59 14.25, 4.87 14.81, 3.54 14.3 C2.22 13.79, 1.53 11.69, 1.04 10.43 C0.55 9.16, 0.25 8.01, 0.6 6.69 C0.94 5.36, 1.94 3.52, 3.09 2.48 C4.24 1.44, 6.71 0.7, 7.5 0.43 C8.29 0.16, 7.91 0.87, 7.84 0.86 M3.54 0.88 C4.42 0.43, 5.58 1.02, 7.17 1.35 C8.75 1.67, 12.25 1.91, 13.04 2.81 C13.83 3.72, 12.13 5.33, 11.9 6.77 C11.67 8.22, 12.71 10.49, 11.66 11.46 C10.6 12.43, 7.29 12.57, 5.59 12.59 C3.88 12.61, 2.28 12.06, 1.43 11.59 C0.57 11.12, 0.35 11.16, 0.45 9.78 C0.56 8.4, 1.43 4.93, 2.05 3.33 C2.67 1.74, 3.75 0.79, 4.17 0.2 C4.59 -0.4, 4.51 -0.18, 4.56 -0.25" stroke="#0a11d3" stroke-width="1" fill="none"></path></g><g stroke-linecap="round" transform="translate(804.828363116284 104.45446997826156) rotate(0 6.423028523489847 6.970952181208048)"><path d="M6.79 0.38 C8.27 0.21, 10.07 0.69, 11.09 1.57 C12.11 2.45, 12.71 4.11, 12.9 5.64 C13.08 7.17, 13.03 9.36, 12.19 10.75 C11.36 12.13, 9.38 13.55, 7.87 13.93 C6.35 14.31, 4.21 13.84, 3.12 13.02 C2.03 12.2, 1.73 10.37, 1.34 9.01 C0.96 7.65, 0.59 6.26, 0.81 4.86 C1.03 3.46, 1.63 1.55, 2.66 0.6 C3.68 -0.35, 5.99 -0.97, 6.95 -0.85 C7.9 -0.72, 8.28 1.19, 8.38 1.34 M9.5 1.73 C10.74 2.13, 10.53 3.35, 11.15 4.14 C11.76 4.94, 13.15 5.4, 13.19 6.48 C13.23 7.56, 12.6 9.18, 11.37 10.63 C10.14 12.09, 7.15 14.82, 5.82 15.22 C4.49 15.62, 4.35 14.34, 3.39 13.03 C2.43 11.73, 0.5 9.18, 0.06 7.4 C-0.39 5.63, -0.1 3.64, 0.73 2.37 C1.55 1.1, 3.95 0.05, 5.01 -0.21 C6.08 -0.47, 6.41 0.71, 7.12 0.79 C7.82 0.87, 9.04 0.03, 9.26 0.28" stroke="none" stroke-width="0" fill="#fff"></path><path d="M4.41 0.25 C5.5 -0.44, 7.72 -0.83, 9.06 -0.2 C10.4 0.43, 11.93 2.5, 12.43 4.05 C12.93 5.6, 12.48 7.8, 12.08 9.1 C11.68 10.41, 10.97 11.06, 10.01 11.87 C9.06 12.67, 7.78 13.87, 6.36 13.94 C4.94 14.01, 2.43 13.22, 1.48 12.29 C0.53 11.36, 0.58 9.84, 0.66 8.36 C0.73 6.88, 1.01 4.76, 1.93 3.42 C2.86 2.07, 5.31 0.79, 6.19 0.28 C7.07 -0.23, 7.34 0.43, 7.22 0.36 M8.16 -0.86 C9.66 -0.37, 11.9 2.85, 12.63 4.07 C13.36 5.29, 12.97 5.03, 12.56 6.44 C12.15 7.85, 11.15 11.49, 10.17 12.52 C9.18 13.55, 8.09 12.78, 6.66 12.62 C5.22 12.47, 2.81 12.16, 1.58 11.6 C0.35 11.04, -0.74 10.26, -0.73 9.26 C-0.72 8.27, 1.04 6.99, 1.65 5.63 C2.27 4.27, 1.98 1.89, 2.95 1.1 C3.92 0.3, 6.83 0.93, 7.48 0.86 C8.13 0.79, 7.08 0.64, 6.88 0.69" stroke="#0a11d3" stroke-width="1" fill="none"></path></g><g stroke-linecap="round" transform="translate(804.828363116284 137.7152711527582) rotate(0 6.423028523489847 6.970952181208048)"><path d="M4.1 0.75 C5.04 0.13, 6.5 -0.14, 7.65 0.32 C8.79 0.79, 10.15 2.34, 10.98 3.52 C11.8 4.7, 12.56 6.11, 12.59 7.41 C12.62 8.72, 12.15 10.14, 11.16 11.35 C10.18 12.56, 8.23 14.35, 6.67 14.66 C5.12 14.98, 2.93 14.25, 1.8 13.25 C0.68 12.24, 0.22 10.28, -0.09 8.64 C-0.39 7.01, -0.64 4.75, -0.04 3.44 C0.56 2.13, 2.47 1.27, 3.51 0.76 C4.55 0.25, 6.14 0.25, 6.2 0.39 M6.76 -0.59 C8.1 -1.04, 9.88 0.39, 10.6 1.36 C11.33 2.32, 11.03 4.04, 11.09 5.23 C11.15 6.42, 11.01 7.05, 10.98 8.5 C10.94 9.94, 11.75 13.02, 10.88 13.9 C10.02 14.77, 7.54 14.14, 5.79 13.73 C4.04 13.32, 1.58 12.38, 0.39 11.42 C-0.81 10.47, -1.46 9.69, -1.4 7.99 C-1.33 6.29, -0.42 2.38, 0.78 1.23 C1.98 0.07, 5.08 1.17, 5.82 1.05 C6.56 0.94, 5.04 0.64, 5.2 0.52" stroke="none" stroke-width="0" fill="#fff"></path><path d="M8.83 0.23 C9.8 0.77, 10.5 2.47, 11.12 3.74 C11.74 5.01, 12.65 6.39, 12.56 7.85 C12.47 9.31, 11.77 11.35, 10.56 12.48 C9.36 13.61, 6.73 14.72, 5.34 14.63 C3.95 14.53, 3.01 12.92, 2.22 11.93 C1.43 10.94, 0.66 9.98, 0.61 8.66 C0.56 7.34, 1.2 5.32, 1.93 4 C2.66 2.69, 3.71 1.22, 4.98 0.78 C6.25 0.33, 8.7 1.32, 9.53 1.33 C10.36 1.34, 10.16 0.74, 9.93 0.82 M5.02 1.08 C6.59 0.82, 10.43 0.56, 11.56 1.11 C12.68 1.67, 11.54 3.03, 11.77 4.44 C12 5.85, 13.62 8.31, 12.94 9.58 C12.26 10.84, 9.28 11.53, 7.68 12.04 C6.09 12.55, 4.42 12.65, 3.36 12.63 C2.29 12.62, 1.63 13.1, 1.31 11.93 C0.99 10.75, 1.26 7.32, 1.44 5.58 C1.62 3.84, 1.49 2.58, 2.37 1.49 C3.25 0.4, 6.07 -0.49, 6.75 -0.96 C7.43 -1.43, 6.51 -1.7, 6.44 -1.32" stroke="#0a11d3" stroke-width="1" fill="none"></path></g><g transform="translate(69.22794974256362 363.97868855807377) rotate(0 45.5 12.5)"><text x="45.5" y="18" font-family="Virgil, Segoe UI Emoji" font-size="20px" fill="#000000" text-anchor="middle" style="white-space: pre;" direction="ltr">Customer</text></g><g stroke-linecap="round"><g transform="translate(87.71715731671247 356.60249594653254) rotate(0 25.7872206485074 -21.777916348211846)" fill-rule="evenodd"><path d="M13.47 -38.64 C13.47 -38.64, 13.47 -38.64, 13.47 -38.64 M13.47 -38.64 C13.47 -38.64, 13.47 -38.64, 13.47 -38.64 M7.04 -19.05 C12.4 -25.22, 17.76 -31.38, 26.72 -41.69 M7.04 -19.05 C12.75 -25.62, 18.46 -32.19, 26.72 -41.69 M0.61 0.53 C11.26 -11.71, 21.9 -23.95, 35.39 -39.47 M0.61 0.53 C7.57 -7.47, 14.53 -15.47, 35.39 -39.47 M11.24 0.5 C22.89 -12.89, 34.53 -26.28, 40.77 -33.46 M11.24 0.5 C22.66 -12.63, 34.07 -25.75, 40.77 -33.46 M21.87 0.47 C29.51 -8.32, 37.14 -17.1, 46.81 -28.21 M21.87 0.47 C31.37 -10.46, 40.86 -21.38, 46.81 -28.21 M29.22 4.2 C37.15 -4.91, 45.08 -14.03, 50.87 -20.7 M29.22 4.2 C37.52 -5.34, 45.81 -14.88, 50.87 -20.7 M41.82 1.91 C46.18 -3.1, 50.53 -8.11, 54.94 -13.19 M41.82 1.91 C46.2 -3.13, 50.57 -8.16, 54.94 -13.19 M0 0 C0 0, 0 0, 0 0 M0 0 C0 0, 0 0, 0 0 M12.04 -0.13 C8.38 -3.32, 4.71 -6.5, 1.47 -9.32 M12.04 -0.13 C9.19 -2.61, 6.33 -5.09, 1.47 -9.32 M24.84 0.39 C16.5 -6.86, 8.16 -14.11, 2.95 -18.64 M24.84 0.39 C18.61 -5.02, 12.39 -10.43, 2.95 -18.64 M30.08 -5.65 C21.96 -12.71, 13.83 -19.78, 6.69 -25.99 M30.08 -5.65 C22 -12.68, 13.91 -19.71, 6.69 -25.99 M45.9 -2.5 C37.13 -10.12, 28.36 -17.75, 9.67 -33.99 M45.9 -2.5 C36 -11.1, 26.11 -19.71, 9.67 -33.99 M52.66 -7.23 C42.73 -15.86, 32.8 -24.49, 14.92 -40.03 M52.66 -7.23 C39.18 -18.94, 25.71 -30.65, 14.92 -40.03 M51.11 -19.17 C39.37 -29.38, 27.63 -39.58, 20.92 -45.41 M51.11 -19.17 C41.13 -27.85, 31.14 -36.53, 20.92 -45.41" stroke="#ced4da" stroke-width="1" fill="none"></path><path d="M0 0 C0.92 -4.85, 1.58 -21.76, 5.52 -29.07 C9.46 -36.38, 17.61 -43.34, 23.65 -43.87 C29.69 -44.4, 37.51 -39.05, 41.78 -32.24 C46.05 -25.43, 56.23 -8.39, 49.27 -3.02 C42.31 2.36, 8.21 -0.5, 0 0 M0 0 C0.92 -4.85, 1.58 -21.76, 5.52 -29.07 C9.46 -36.38, 17.61 -43.34, 23.65 -43.87 C29.69 -44.4, 37.51 -39.05, 41.78 -32.24 C46.05 -25.43, 56.23 -8.39, 49.27 -3.02 C42.31 2.36, 8.21 -0.5, 0 0" stroke="#000000" stroke-width="2" fill="none"></path></g></g><g stroke-linecap="round" transform="translate(100.17102815302815 289.9114481606761) rotate(0 12.612971703843215 11.036350240862845)"><path d="M2.98 3.91 C2.98 3.91, 2.98 3.91, 2.98 3.91 M2.98 3.91 C2.98 3.91, 2.98 3.91, 2.98 3.91 M2.45 16.71 C5.5 13.21, 8.54 9.71, 16.23 0.86 M2.45 16.71 C6.2 12.39, 9.96 8.08, 16.23 0.86 M8.49 21.96 C12.87 16.92, 17.24 11.89, 23.58 4.6 M8.49 21.96 C13.11 16.64, 17.73 11.33, 23.58 4.6 M4.36 19.37 C4.36 19.37, 4.36 19.37, 4.36 19.37 M4.36 19.37 C4.36 19.37, 4.36 19.37, 4.36 19.37 M17.91 20.55 C11.5 14.97, 5.08 9.39, 1.31 6.11 M17.91 20.55 C12.83 16.13, 7.75 11.71, 1.31 6.11 M24.67 15.82 C18.06 10.07, 11.45 4.33, 7.31 0.73 M24.67 15.82 C18.32 10.3, 11.96 4.77, 7.31 0.73" stroke="#ced4da" stroke-width="1" fill="none"></path><path d="M25.23 11.04 C25.23 11.68, 25.16 12.32, 25.03 12.95 C24.91 13.58, 24.71 14.21, 24.47 14.81 C24.22 15.41, 23.9 16, 23.54 16.55 C23.17 17.11, 22.74 17.64, 22.28 18.13 C21.81 18.62, 21.28 19.08, 20.72 19.49 C20.16 19.9, 19.55 20.27, 18.92 20.59 C18.29 20.91, 17.61 21.19, 16.93 21.41 C16.24 21.63, 15.52 21.79, 14.8 21.91 C14.08 22.02, 13.34 22.07, 12.61 22.07 C11.88 22.07, 11.14 22.02, 10.42 21.91 C9.7 21.79, 8.99 21.63, 8.3 21.41 C7.61 21.19, 6.94 20.91, 6.31 20.59 C5.67 20.27, 5.06 19.9, 4.51 19.49 C3.95 19.08, 3.42 18.62, 2.95 18.13 C2.48 17.64, 2.05 17.11, 1.69 16.55 C1.32 16, 1.01 15.41, 0.76 14.81 C0.51 14.21, 0.32 13.58, 0.19 12.95 C0.06 12.32, 0 11.68, 0 11.04 C0 10.4, 0.06 9.75, 0.19 9.12 C0.32 8.49, 0.51 7.86, 0.76 7.26 C1.01 6.66, 1.32 6.07, 1.69 5.52 C2.05 4.96, 2.48 4.43, 2.95 3.94 C3.42 3.45, 3.95 2.99, 4.51 2.58 C5.06 2.17, 5.67 1.8, 6.31 1.48 C6.94 1.16, 7.61 0.88, 8.3 0.67 C8.99 0.45, 9.7 0.28, 10.42 0.17 C11.14 0.06, 11.88 0, 12.61 0 C13.34 0, 14.08 0.06, 14.8 0.17 C15.52 0.28, 16.24 0.45, 16.93 0.67 C17.61 0.88, 18.29 1.16, 18.92 1.48 C19.55 1.8, 20.16 2.17, 20.72 2.58 C21.28 2.99, 21.81 3.45, 22.28 3.94 C22.74 4.43, 23.17 4.96, 23.54 5.52 C23.9 6.07, 24.22 6.66, 24.47 7.26 C24.71 7.86, 24.91 8.49, 25.03 9.12 C25.16 9.75, 25.19 10.72, 25.23 11.04 C25.26 11.36, 25.26 10.72, 25.23 11.04" stroke="#000000" stroke-width="2" fill="none"></path></g><g transform="translate(570.3457031250001 363.698882182984) rotate(0 25 12.500000000000028)"><text x="0" y="18" font-family="Virgil, Segoe UI Emoji" font-size="20px" fill="#000000" text-anchor="start" style="white-space: pre;" direction="ltr">Email</text></g><g stroke-linecap="round" transform="translate(564.1022018055211 312.1347547106253) rotate(0 31.243501319478924 20.731669099841127)"><path d="M0 0 C0 0, 0 0, 0 0 M0 0 C0 0, 0 0, 0 0 M0.13 12.04 C4.3 7.24, 8.48 2.44, 10.63 -0.03 M0.13 12.04 C3.25 8.46, 6.36 4.88, 10.63 -0.03 M0.27 24.08 C7.59 15.65, 14.92 7.22, 21.26 -0.07 M0.27 24.08 C5.8 17.71, 11.34 11.35, 21.26 -0.07 M-0.26 36.88 C6.18 29.47, 12.62 22.07, 31.89 -0.1 M-0.26 36.88 C7.14 28.37, 14.54 19.86, 31.89 -0.1 M3.81 44.39 C16.39 29.92, 28.96 15.46, 42.52 -0.14 M3.81 44.39 C12.63 34.25, 21.45 24.11, 42.52 -0.14 M14.44 44.36 C24.81 32.43, 35.18 20.5, 53.15 -0.17 M14.44 44.36 C25.7 31.41, 36.95 18.46, 53.15 -0.17 M25.07 44.32 C37.36 30.19, 49.65 16.05, 63.12 0.55 M25.07 44.32 C33.74 34.35, 42.41 24.38, 63.12 0.55 M35.7 44.29 C41.51 37.6, 47.32 30.92, 63.26 12.59 M35.7 44.29 C43.8 34.97, 51.9 25.65, 63.26 12.59 M46.33 44.25 C50.73 39.2, 55.12 34.14, 63.39 24.63 M46.33 44.25 C52.52 37.13, 58.71 30.01, 63.39 24.63 M56.31 44.97 C58.1 42.92, 59.88 40.86, 62.87 37.43 M56.31 44.97 C58.92 41.97, 61.53 38.97, 62.87 37.43 M-0.15 41.33 C-0.15 41.33, -0.15 41.33, -0.15 41.33 M-0.15 41.33 C-0.15 41.33, -0.15 41.33, -0.15 41.33 M11.89 41.2 C9.12 38.79, 6.36 36.39, -0.19 30.7 M11.89 41.2 C9.45 39.08, 7.01 36.96, -0.19 30.7 M24.68 41.72 C16.99 35.03, 9.29 28.34, -0.22 20.07 M24.68 41.72 C14.83 33.15, 4.97 24.58, -0.22 20.07 M36.72 41.59 C26.01 32.28, 15.3 22.97, -0.26 9.44 M36.72 41.59 C27.53 33.59, 18.33 25.6, -0.26 9.44 M48.77 41.45 C35.79 30.17, 22.81 18.89, 0.46 -0.53 M48.77 41.45 C31.71 26.63, 14.66 11.81, 0.46 -0.53 M60.81 41.32 C41.69 24.7, 22.57 8.08, 12.5 -0.67 M60.81 41.32 C45.23 27.78, 29.66 14.24, 12.5 -0.67 M66.81 35.94 C56.2 26.72, 45.59 17.49, 24.55 -0.8 M66.81 35.94 C51.43 22.57, 36.04 9.2, 24.55 -0.8 M66.77 25.31 C57.28 17.06, 47.79 8.81, 37.34 -0.28 M66.77 25.31 C56.48 16.36, 46.19 7.41, 37.34 -0.28 M66.74 14.68 C60.06 8.87, 53.39 3.07, 49.38 -0.41 M66.74 14.68 C59.99 8.81, 53.24 2.95, 49.38 -0.41 M66.71 4.05 C64.71 2.32, 62.72 0.59, 61.42 -0.54 M66.71 4.05 C65.13 2.68, 63.54 1.3, 61.42 -0.54" stroke="#ced4da" stroke-width="1" fill="none"></path><path d="M0 0 C22 0, 44.01 0, 62.49 0 M0 0 C17.33 0, 34.65 0, 62.49 0 M62.49 0 C62.49 12.76, 62.49 25.51, 62.49 41.46 M62.49 0 C62.49 10.76, 62.49 21.51, 62.49 41.46 M62.49 41.46 C48.73 41.46, 34.98 41.46, 0 41.46 M62.49 41.46 C43.3 41.46, 24.11 41.46, 0 41.46 M0 41.46 C0 25.65, 0 9.83, 0 0 M0 41.46 C0 28.33, 0 15.19, 0 0" stroke="#000000" stroke-width="2" fill="none"></path></g><g stroke-linecap="round"><g transform="translate(565.0051381303493 315.9772986632587) rotate(0 15.366143511948167 11.96293434694698)"><path d="M0 0 C11.54 8.98, 23.08 17.97, 30.73 23.93 M0 0 C6.41 4.99, 12.82 9.98, 30.73 23.93" stroke="#000000" stroke-width="2" fill="none"></path></g></g><g stroke-linecap="round"><g transform="translate(596.8727903464779 341.04642809629365) rotate(0 14.651538881000022 -14.616124377920102)"><path d="M0 0 C10.08 -10.05, 20.16 -20.11, 29.3 -29.23 M0 0 C10.73 -10.7, 21.46 -21.4, 29.3 -29.23" stroke="#000000" stroke-width="2" fill="none"></path></g></g><g stroke-linecap="round" transform="translate(601.1485595703125 69.75976562499994) rotate(0 50.45098876953125 50.684967041015625)"><path d="M50.95 -0.43 C59.06 -1.11, 68.69 3.27, 75.99 7.39 C83.28 11.51, 90.63 17.26, 94.73 24.3 C98.84 31.34, 100.63 40.93, 100.61 49.62 C100.6 58.31, 98.64 68.83, 94.64 76.42 C90.64 84.01, 84.01 90.83, 76.61 95.15 C69.21 99.48, 58.93 102.58, 50.24 102.36 C41.56 102.14, 31.64 98.23, 24.52 93.82 C17.4 89.41, 11.73 83.05, 7.53 75.89 C3.33 68.73, -0.45 59.43, -0.66 50.87 C-0.87 42.31, 1.98 31.99, 6.27 24.52 C10.57 17.06, 16.45 10.21, 25.13 6.09 C33.81 1.96, 52.01 0.28, 58.35 -0.21 C64.69 -0.7, 63.57 2.21, 63.16 3.13 M67.97 3.1 C75.83 5.34, 83.09 11.72, 88.22 18.31 C93.34 24.91, 97.19 34.64, 98.73 42.67 C100.26 50.69, 99.82 58.44, 97.44 66.47 C95.06 74.49, 90.92 84.89, 84.46 90.82 C78 96.74, 67.27 100.81, 58.68 102.01 C50.1 103.21, 40.87 101.22, 32.95 98.03 C25.02 94.84, 16.7 89.49, 11.14 82.87 C5.58 76.25, 1.06 66.39, -0.42 58.31 C-1.91 50.22, -0.87 42.32, 2.23 34.37 C5.34 26.41, 11.64 16.2, 18.22 10.56 C24.79 4.91, 33.53 1.53, 41.69 0.5 C49.85 -0.53, 63.08 4.04, 67.2 4.37 C71.31 4.71, 66.63 1.94, 66.38 2.52" stroke="#000000" stroke-width="1" fill="none"></path></g><g stroke-linecap="round"><g transform="translate(636.6966552734375 168.65026855468744) rotate(0 -15.479674368013548 69.18693118058144)"><path d="M-0.75 -0.9 C-5.94 22.49, -26.39 115.98, -31.69 139.27 M1.06 1.24 C-4.14 24.39, -26.32 115, -32.02 137.59" stroke="#000000" stroke-width="1" fill="none"></path></g><g transform="translate(636.6966552734375 168.65026855468744) rotate(0 -15.479674368013548 69.18693118058144)"><path d="M-36.7 109.7 C-33.28 115.88, -33.13 123.45, -31.78 136.98 M-35.25 108.28 C-34.77 118.32, -32.21 129.48, -31.41 138.28" stroke="#000000" stroke-width="1" fill="none"></path></g><g transform="translate(636.6966552734375 168.65026855468744) rotate(0 -15.479674368013548 69.18693118058144)"><path d="M-16.78 114.64 C-18.39 119.44, -23.33 125.75, -31.78 136.98 M-15.33 113.21 C-22.14 121.5, -26.81 130.86, -31.41 138.28" stroke="#000000" stroke-width="1" fill="none"></path></g></g><g transform="translate(696.385498046875 363.71890171423394) rotate(0 20.5 12.5)"><text x="20.5" y="18" font-family="Virgil, Segoe UI Emoji" font-size="20px" fill="#000000" text-anchor="middle" style="white-space: pre;" direction="ltr">SMS</text></g><g stroke-linecap="round" transform="translate(685.641996727396 312.2888684801565) rotate(0 31.243501319478924 20.731669099841127)"><path d="M0 0 C0 0, 0 0, 0 0 M0 0 C0 0, 0 0, 0 0 M0.13 12.04 C3.8 7.82, 7.46 3.61, 10.63 -0.03 M0.13 12.04 C2.79 8.98, 5.46 5.92, 10.63 -0.03 M0.27 24.08 C4.86 18.8, 9.46 13.51, 21.26 -0.07 M0.27 24.08 C5.54 18.01, 10.82 11.94, 21.26 -0.07 M-0.26 36.88 C10.6 24.38, 21.46 11.89, 31.89 -0.1 M-0.26 36.88 C11.06 23.86, 22.38 10.84, 31.89 -0.1 M3.81 44.39 C14.81 31.74, 25.81 19.09, 42.52 -0.14 M3.81 44.39 C13.5 33.25, 23.18 22.11, 42.52 -0.14 M14.44 44.36 C25.94 31.13, 37.44 17.89, 53.15 -0.17 M14.44 44.36 C26.16 30.87, 37.88 17.39, 53.15 -0.17 M25.07 44.32 C38.62 28.74, 52.16 13.16, 63.12 0.55 M25.07 44.32 C32.69 35.55, 40.31 26.79, 63.12 0.55 M35.7 44.29 C45.55 32.96, 55.39 21.64, 63.26 12.59 M35.7 44.29 C45.05 33.53, 54.4 22.78, 63.26 12.59 M46.33 44.25 C53.04 36.53, 59.76 28.81, 63.39 24.63 M46.33 44.25 C51.34 38.49, 56.35 32.73, 63.39 24.63 M56.31 44.97 C58.48 42.47, 60.65 39.98, 62.87 37.43 M56.31 44.97 C58.85 42.05, 61.39 39.13, 62.87 37.43 M-0.15 41.33 C-0.15 41.33, -0.15 41.33, -0.15 41.33 M-0.15 41.33 C-0.15 41.33, -0.15 41.33, -0.15 41.33 M11.89 41.2 C9.3 38.95, 6.71 36.7, -0.19 30.7 M11.89 41.2 C7.48 37.37, 3.08 33.54, -0.19 30.7 M24.68 41.72 C15.58 33.81, 6.48 25.9, -0.22 20.07 M24.68 41.72 C14.96 33.27, 5.24 24.82, -0.22 20.07 M36.72 41.59 C26.17 32.41, 15.62 23.24, -0.26 9.44 M36.72 41.59 C26.3 32.52, 15.87 23.46, -0.26 9.44 M48.77 41.45 C35.14 29.61, 21.52 17.77, 0.46 -0.53 M48.77 41.45 C29.99 25.13, 11.21 8.8, 0.46 -0.53 M60.81 41.32 C50.86 32.68, 40.92 24.03, 12.5 -0.67 M60.81 41.32 C44.34 27, 27.87 12.69, 12.5 -0.67 M66.81 35.94 C52.93 23.87, 39.05 11.81, 24.55 -0.8 M66.81 35.94 C53.24 24.14, 39.66 12.34, 24.55 -0.8 M66.77 25.31 C57.36 17.13, 47.95 8.94, 37.34 -0.28 M66.77 25.31 C59.81 19.26, 52.85 13.21, 37.34 -0.28 M66.74 14.68 C61.05 9.74, 55.37 4.79, 49.38 -0.41 M66.74 14.68 C59.96 8.79, 53.18 2.89, 49.38 -0.41 M66.71 4.05 C64.83 2.42, 62.96 0.8, 61.42 -0.54 M66.71 4.05 C65.36 2.88, 64.01 1.71, 61.42 -0.54" stroke="#ced4da" stroke-width="1" fill="none"></path><path d="M0 0 C22.81 0, 45.62 0, 62.49 0 M0 0 C23.34 0, 46.68 0, 62.49 0 M62.49 0 C62.49 15.66, 62.49 31.31, 62.49 41.46 M62.49 0 C62.49 14.09, 62.49 28.19, 62.49 41.46 M62.49 41.46 C41.47 41.46, 20.46 41.46, 0 41.46 M62.49 41.46 C40.63 41.46, 18.78 41.46, 0 41.46 M0 41.46 C0 25.54, 0 9.63, 0 0 M0 41.46 C0 26.29, 0 11.12, 0 0" stroke="#000000" stroke-width="2" fill="none"></path></g><g stroke-linecap="round"><g transform="translate(686.5449330522242 316.1314124327899) rotate(0 15.366143511948167 11.96293434694698)"><path d="M0 0 C9.41 7.33, 18.82 14.65, 30.73 23.93 M0 0 C6.69 5.21, 13.39 10.42, 30.73 23.93" stroke="#000000" stroke-width="2" fill="none"></path></g></g><g stroke-linecap="round"><g transform="translate(718.4125852683528 341.20054186582485) rotate(0 14.651538881000079 -14.616124377920102)"><path d="M0 0 C9.58 -9.56, 19.17 -19.12, 29.3 -29.23 M0 0 C7.29 -7.28, 14.59 -14.55, 29.3 -29.23" stroke="#000000" stroke-width="2" fill="none"></path></g></g><g stroke-linecap="round"><g transform="translate(674.840623244361 166.10787963867182) rotate(0 22.344512762225236 67.95350679792463)"><path d="M0.07 -0.59 C7.39 22.21, 36.51 113.83, 43.78 136.5 M-1.36 1.72 C6.36 24.21, 38.13 112.3, 46.05 134.78" stroke="#000000" stroke-width="1" fill="none"></path></g><g transform="translate(674.840623244361 166.10787963867182) rotate(0 22.344512762225236 67.95350679792463)"><path d="M25.93 110.26 C33.62 116.72, 37.3 126.56, 47.69 135.38 M26.01 111.78 C33.38 119.95, 40.69 129.85, 45.52 133.9" stroke="#000000" stroke-width="1" fill="none"></path></g><g transform="translate(674.840623244361 166.10787963867182) rotate(0 22.344512762225236 67.95350679792463)"><path d="M45.26 103.37 C47.41 111.81, 45.57 123.62, 47.69 135.38 M45.34 104.89 C45.22 115.83, 45.07 128.4, 45.52 133.9" stroke="#000000" stroke-width="1" fill="none"></path></g></g><g stroke-linecap="round"><g transform="translate(536.5235595703125 334.45605468749994) rotate(0 -180.08581340350213 -1.551040440425254)"><path d="M0.52 -0.27 C-59.61 -0.9, -300.75 -2.75, -360.69 -2.84 M-0.66 -1.45 C-60.42 -2.07, -298.56 -1.68, -358.38 -1.88" stroke="#000000" stroke-width="1" fill="none"></path></g><g transform="translate(536.5235595703125 334.45605468749994) rotate(0 -180.08581340350213 -1.551040440425254)"><path d="M-330.62 -13.37 C-340.62 -7.55, -345.93 -4.2, -358.7 -0.34 M-330.14 -12.81 C-339.35 -9.42, -346.3 -6.42, -357.97 -2" stroke="#000000" stroke-width="1" fill="none"></path></g><g transform="translate(536.5235595703125 334.45605468749994) rotate(0 -180.08581340350213 -1.551040440425254)"><path d="M-330.64 7.15 C-340.8 6.65, -346.11 3.68, -358.7 -0.34 M-330.15 7.71 C-339.2 5.16, -346.15 2.22, -357.97 -2" stroke="#000000" stroke-width="1" fill="none"></path></g></g><g stroke-linecap="round" transform="translate(89.7712758382163 477.9208513895671) rotate(0 25.333353678385436 25.333353678385436)"><path d="M2.6 0.75 C11.99 -2.06, 28.18 0.78, 49.1 -1.12 M-1.75 -0.92 C14.01 -0.38, 25.27 -1.25, 50.12 -1.18 M49.2 1.79 C52.32 11.18, 53 28.17, 51.9 51.44 M52.15 1.95 C51.74 19.05, 51.38 35.74, 51.54 51.63 M53.57 50.45 C37.3 51.72, 18.84 53.39, -2.01 53.38 M52.38 52.26 C38.13 49.21, 24.52 48.72, 0.45 49.29 M0.23 52.06 C3.42 42.9, -2.37 30.73, -3.43 -1.27 M-0.59 50.69 C-0.84 32.41, -1.76 13.71, -0.75 0.34" stroke="#000000" stroke-width="1" fill="none"></path></g><g stroke-linecap="round" transform="translate(129.43800354003918 467.92086410522455) rotate(0 9.333368937174441 9.333368937174441)"><path d="M6.26 -0.69 C7.64 -1.63, 9.02 -2.37, 10.82 -1.51 C12.61 -0.65, 15.6 2.25, 17.01 4.47 C18.42 6.69, 19.18 10.13, 19.28 11.82 C19.37 13.5, 18.89 13.71, 17.59 14.57 C16.28 15.42, 13.89 16.39, 11.46 16.94 C9.02 17.5, 4.69 18.56, 2.98 17.9 C1.27 17.23, 1.61 15.08, 1.2 12.93 C0.78 10.78, -1.64 6.93, 0.48 5 C2.61 3.07, 11.15 0.84, 13.93 1.37 C16.72 1.89, 17.35 7.97, 17.2 8.17 M11.69 0.84 C13.84 1.87, 19.57 4.7, 20.43 6.24 C21.29 7.79, 18.49 8.61, 16.85 10.11 C15.22 11.61, 11.8 14.37, 10.62 15.26 C9.44 16.16, 11.42 15.18, 9.77 15.47 C8.11 15.76, 1.86 18.2, 0.69 17.03 C-0.49 15.86, 2.84 10.59, 2.73 8.46 C2.62 6.34, -1.03 5.49, 0 4.29 C1.03 3.08, 6.96 1.37, 8.91 1.23 C10.85 1.09, 10.56 2.9, 11.66 3.44 C12.77 3.99, 15 4.37, 15.56 4.49" stroke="none" stroke-width="0" fill="#7950f2"></path><path d="M7.4 -0.43 C9.24 -1.34, 10.6 -1.1, 12.6 0.12 C14.61 1.34, 18.76 5.12, 19.43 6.89 C20.1 8.65, 17.31 8.97, 16.63 10.71 C15.96 12.45, 16.97 16.09, 15.38 17.34 C13.79 18.59, 9.26 18.62, 7.08 18.21 C4.89 17.79, 3.62 16.44, 2.27 14.84 C0.93 13.24, -0.82 10.51, -1.01 8.59 C-1.19 6.68, -1.45 4.38, 1.16 3.35 C3.78 2.31, 11.96 1.57, 14.66 2.37 C17.36 3.18, 17.34 8.14, 17.38 8.17 M12.63 2.4 C14.76 2.78, 18.17 3.48, 19.52 4.8 C20.87 6.11, 21.14 8.3, 20.71 10.3 C20.27 12.29, 18.32 15.25, 16.91 16.78 C15.5 18.3, 13.95 19.79, 12.23 19.44 C10.52 19.08, 8.23 15.87, 6.64 14.66 C5.04 13.45, 3.27 13.4, 2.68 12.2 C2.09 11, 2.56 8.83, 3.12 7.45 C3.67 6.06, 4.9 4.76, 5.99 3.88 C7.07 3.01, 8.95 2.57, 9.62 2.21 C10.29 1.84, 10.12 1.45, 10 1.69" stroke="#000000" stroke-width="1" fill="none"></path></g><g stroke-linecap="round" transform="translate(307.0438588460288 477.62248102823895) rotate(0 25.333353678385436 25.333353678385436)"><path d="M1.99 1.21 C14.58 -0.71, 30.88 3.79, 53.89 -3.49 M-1.56 -0.44 C12.32 -1.4, 24.67 -1.9, 50.21 -0.74 M53.85 3.12 C52.53 18.24, 53.27 35.66, 52.68 53.63 M51.19 0.36 C51.99 21.11, 51.7 41.7, 48.89 52.12 M52.23 54.29 C33.74 53.87, 19.37 52.95, -2.68 54.1 M51.25 49.4 C31.89 48.89, 10.84 48.32, -0.22 50.78 M-3.36 54.2 C-4.05 32.44, 1.76 18.72, 3.24 -1.18 M-1.26 50.13 C-0.58 35.76, 1.31 19.66, -0.63 -1.8" stroke="#000000" stroke-width="1" fill="none"></path></g><g stroke-linecap="round" transform="translate(344.7106679280598 468.95582962036127) rotate(0 9.333368937174441 9.333368937174441)"><path d="M3.18 2.25 C4.91 1.48, 7.74 1.5, 10.11 1.22 C12.48 0.94, 15.68 -0.26, 17.38 0.55 C19.08 1.36, 20.41 3.63, 20.3 6.08 C20.2 8.53, 17.89 12.98, 16.74 15.26 C15.6 17.54, 15.32 19.28, 13.44 19.75 C11.56 20.23, 7.57 19.07, 5.47 18.1 C3.38 17.12, 1.97 15.72, 0.87 13.88 C-0.22 12.05, -2.04 9.31, -1.11 7.09 C-0.17 4.88, 4.2 1.78, 6.49 0.58 C8.78 -0.61, 12.57 0.14, 12.62 -0.06 M6.25 -2.62 C7.22 -3.48, 8.31 -2.21, 10.68 -1.31 C13.05 -0.4, 19.41 0.23, 20.46 2.82 C21.52 5.4, 17.58 11.88, 17.01 14.21 C16.44 16.54, 18.95 15.85, 17.05 16.8 C15.15 17.74, 7.92 19.88, 5.61 19.88 C3.3 19.88, 4.57 18.15, 3.18 16.78 C1.8 15.41, -2.72 13.39, -2.71 11.68 C-2.71 9.96, 1.35 8.08, 3.21 6.48 C5.08 4.88, 8.19 2.85, 8.47 2.08 C8.75 1.31, 4.67 2.18, 4.88 1.87" stroke="none" stroke-width="0" fill="#40c057"></path><path d="M7.47 2.32 C8.98 1.45, 8.69 -0.89, 10.41 -0.48 C12.13 -0.08, 16.71 3, 17.81 4.77 C18.91 6.54, 17.48 8.42, 17.02 10.13 C16.57 11.85, 16.47 13.91, 15.08 15.05 C13.69 16.19, 10.65 16.82, 8.67 16.98 C6.69 17.14, 4.44 16.72, 3.19 15.99 C1.93 15.26, 1.58 14.16, 1.11 12.59 C0.65 11.03, -1.86 8.47, 0.39 6.6 C2.63 4.73, 11.6 1.3, 14.58 1.38 C17.56 1.45, 18.52 6.82, 18.26 7.03 M17.68 3.24 C18.76 4.43, 18.96 7.43, 19.13 9.42 C19.29 11.42, 19.47 14.21, 18.66 15.23 C17.85 16.25, 16.05 15.14, 14.26 15.56 C12.48 15.99, 9.72 17.87, 7.94 17.79 C6.15 17.72, 4.64 16.41, 3.55 15.11 C2.46 13.82, 1.62 11.89, 1.39 10.03 C1.16 8.18, 0.94 5.41, 2.15 3.96 C3.35 2.52, 6.74 1.17, 8.65 1.35 C10.56 1.52, 12.08 4.61, 13.62 5.02 C15.17 5.44, 17.86 3.99, 17.9 3.82" stroke="#000000" stroke-width="1" fill="none"></path></g><g stroke-linecap="round"><g transform="translate(115.98004150390625 405.3402709960937) rotate(0 0.5168664099182934 28.086917690727887)"><path d="M0.58 0.06 C0.72 9.5, 1.47 46.73, 1.61 56.21 M-0.58 -0.96 C-0.65 8.62, 0.48 47.3, 0.68 57.13" stroke="#000000" stroke-width="1" fill="none"></path></g><g transform="translate(115.98004150390625 405.3402709960937) rotate(0 0.5168664099182934 28.086917690727887)"><path d="M-9.71 30.44 C-8.08 39.76, -3.11 49.79, -0.16 58.4 M-9.88 29.74 C-7.03 35.98, -5.29 42.27, -0.2 57.27" stroke="#000000" stroke-width="1" fill="none"></path></g><g transform="translate(115.98004150390625 405.3402709960937) rotate(0 0.5168664099182934 28.086917690727887)"><path d="M9.92 29.96 C4.47 39.54, 2.36 49.75, -0.16 58.4 M9.75 29.26 C8.26 35.63, 5.67 42.03, -0.2 57.27" stroke="#000000" stroke-width="1" fill="none"></path></g></g><g stroke-linecap="round"><g transform="translate(163.9776611328125 501.49731445312494) rotate(0 62.869597353152926 -1.3713689685054078)"><path d="M-0.01 -0.4 C20.85 -0.49, 104.03 -0.42, 124.93 -0.38 M-1.47 -1.66 C19.79 -2.14, 106.23 -2.27, 127.21 -2.37" stroke="#000000" stroke-width="1" fill="none"></path></g><g transform="translate(163.9776611328125 501.49731445312494) rotate(0 62.869597353152926 -1.3713689685054078)"><path d="M98.38 6.61 C107.38 4.43, 115.65 3.1, 128.35 -3.58 M99.12 7.65 C106.55 5.57, 113.98 3.3, 127.17 -2.12" stroke="#000000" stroke-width="1" fill="none"></path></g><g transform="translate(163.9776611328125 501.49731445312494) rotate(0 62.869597353152926 -1.3713689685054078)"><path d="M98.32 -13.91 C107.35 -10.32, 115.65 -5.87, 128.35 -3.58 M99.06 -12.87 C106.56 -9.77, 114.01 -6.85, 127.17 -2.12" stroke="#000000" stroke-width="1" fill="none"></path></g></g><g transform="translate(50.41650390625 546.9893798828125) rotate(0 50.5 12.5)"><text x="50.5" y="18" font-family="Virgil, Segoe UI Emoji" font-size="20px" fill="#000000" text-anchor="middle" style="white-space: pre;" direction="ltr">Pay Online</text></g><g transform="translate(282.80279541015625 548.869140625) rotate(0 52 12.5)"><text x="52" y="18" font-family="Virgil, Segoe UI Emoji" font-size="20px" fill="#000000" text-anchor="middle" style="white-space: pre;" direction="ltr">Authorised</text></g></svg>